<?xml version="1.0" encoding="utf-8"?>
<svg version="1.1" xmlns="http://www.w3.org/2000/svg" viewBox="-3.37558 -0.745 4.11115 0.86"><defs><marker id="secArrow-blue" markerWidth="3" markerHeight="4" refX="3" refY="2" orient="auto"><path d="M3,2 L0,4 L0,0 L3,2" fill="blue" style="stroke:none;fill-opacity:0.5"/></marker></defs><g><g><g><polygon points="0,-0 -0.0825,-0 -0.165,-0 -0.2475,-0 -0.33,-0 -0.4125,-0 -0.495,-0 -0.5775,-0 -0.66,-0 -0.66,-0.094 0,-0.094 " style="fill:#eee;stroke:darkgrey;stroke-width:0.005"/><polyline points="0,-0 -0.0825,-0 -0.165,-0 -0.2475,-0 -0.33,-0 -0.4125,-0 -0.495,-0 -0.5775,-0 -0.66,-0 " style="fill:#eee;stroke:black;stroke-width:0.010"/><polygon points="-0.02,-0.0188 -0.02,-0.0752 -0.04,-0.047 " style="fill:#ccc;stroke-width:0"/><text x="-0.35350000000000004" y="-0.0235" font-size="0.050000000000000003" style="fill:darkgrey">0</text></g><g><polygon points="-0.66,-0 -0.7425,-0 -0.825,-0 -0.9075,-0 -0.99,-0 -1.0725,-0 -1.155,-0 -1.2375,-0 -1.32,-0 -1.32,-0.094 -0.66,-0.094 " style="fill:#eee;stroke:darkgrey;stroke-width:0.005"/><polyline points="-0.66,-0 -0.7425,-0 -0.825,-0 -0.9075,-0 -0.99,-0 -1.0725,-0 -1.155,-0 -1.2375,-0 -1.32,-0 " style="fill:#eee;stroke:black;stroke-width:0.010"/><polygon points="-0.68,-0.0188 -0.68,-0.0752 -0.7,-0.047 " style="fill:#ccc;stroke-width:0"/><text x="-1.0135000000000001" y="-0.0235" font-size="0.050000000000000003" style="fill:darkgrey">1</text></g><g><polygon points="-1.32,-0 -1.4025,-0 -1.485,-0 -1.5675,-0 -1.65,-0 -1.7325,-0 -1.815,-0 -1.8975,-0 -1.98,-0 -1.98,-0.094 -1.32,-0.094 " style="fill:#eee;stroke:darkgrey;stroke-width:0.005"/><polyline points="-1.32,-0 -1.4025,-0 -1.485,-0 -1.5675,-0 -1.65,-0 -1.7325,-0 -1.815,-0 -1.8975,-0 -1.98,-0 " style="fill:#eee;stroke:black;stroke-width:0.010"/><polygon points="-1.34,-0.0188 -1.34,-0.0752 -1.36,-0.047 " style="fill:#ccc;stroke-width:0"/><text x="-1.6735000000000002" y="-0.0235" font-size="0.050000000000000003" style="fill:darkgrey">2</text></g><g><polygon points="-1.98,-0 -2.0625,-0 -2.145,-0 -2.2275,-0 -2.31,-0 -2.3925,-0 -2.475,-0 -2.5575,-0 -2.64,-0 -2.64,-0.094 -1.98,-0.094 " style="fill:#eee;stroke:darkgrey;stroke-width:0.005"/><polyline points="-1.98,-0 -2.0625,-0 -2.145,-0 -2.2275,-0 -2.31,-0 -2.3925,-0 -2.475,-0 -2.5575,-0 -2.64,-0 " style="fill:#eee;stroke:black;stroke-width:0.010"/><polygon points="-2,-0.0188 -2,-0.0752 -2.02,-0.047 " style="fill:#ccc;stroke-width:0"/><text x="-2.3334999999999999" y="-0.0235" font-size="0.050000000000000003" style="fill:darkgrey">3</text></g><g><polygon points="-2.64,-0 -2.69633,-0 -2.75266,-3.66468e-08 -2.80899,-4.17485e-05 -2.86532,-0.000445667 -2.92162,-0.00204461 -2.97778,-0.00636481 -3.0333,-0.0156938 -3.08694,-0.0326832 -3.05097,-0.119528 -2.64,-0.094 " style="fill:#eee;stroke:darkgrey;stroke-width:0.005"/><polyline points="-2.64,-0 -2.69633,-0 -2.75266,-3.66468e-08 -2.80899,-4.17485e-05 -2.86532,-0.000445667 -2.92162,-0.00204461 -2.97778,-0.00636481 -3.0333,-0.0156938 -3.08694,-0.0326832 " style="fill:#eee;stroke:black;stroke-width:0.010"/><polygon points="-2.66,-0.0188 -2.66,-0.0752 -2.68,-0.047 " style="fill:#ccc;stroke-width:0"/><text x="-2.888143089124025" y="-0.02394080329175903" font-size="0.050000000000000003" style="fill:darkgrey">4</text></g><g><polygon points="-3.08694,-0.0326832 -3.11405,-0.0455047 -3.13977,-0.0609216 -3.16386,-0.0787854 -3.18608,-0.0989241 -3.20621,-0.121144 -3.22408,-0.14523 -3.2395,-0.170952 -3.25232,-0.198061 -3.14748,-0.241486 -3.04351,-0.137523 " style="fill:#eee;stroke:darkgrey;stroke-width:0.005"/><polyline points="-3.08694,-0.0326832 -3.11405,-0.0455047 -3.13977,-0.0609216 -3.16386,-0.0787854 -3.18608,-0.0989241 -3.20621,-0.121144 -3.22408,-0.14523 -3.2395,-0.170952 -3.25232,-0.198061 " style="fill:#eee;stroke:black;stroke-width:0.010"/><polygon points="-3.09673,-0.0613047 -3.07068,-0.124208 -3.10218,-0.10041 " style="fill:#ccc;stroke-width:0"/><text x="-3.1743249630240924" y="-0.11067503697590787" font-size="0.050000000000000003" style="fill:darkgrey">5</text></g><g><polygon points="-3.25232,-0.198061 -3.26242,-0.226296 -3.26971,-0.255385 -3.27411,-0.285048 -3.27558,-0.315 -3.27411,-0.344952 -3.26971,-0.374615 -3.26242,-0.403704 -3.25232,-0.431939 -3.14748,-0.388514 -3.14748,-0.241486 " style="fill:#eee;stroke:darkgrey;stroke-width:0.005"/><polyline points="-3.25232,-0.198061 -3.26242,-0.226296 -3.26971,-0.255385 -3.27411,-0.285048 -3.27558,-0.315 -3.27411,-0.344952 -3.26971,-0.374615 -3.26242,-0.403704 -3.25232,-0.431939 " style="fill:#eee;stroke:black;stroke-width:0.010"/><polygon points="-3.239,-0.225223 -3.1761,-0.251279 -3.2152,-0.256729 " style="fill:#ccc;stroke-width:0"/><text x="-3.2472081809864393" y="-0.28663069024999999" font-size="0.050000000000000003" style="fill:darkgrey">6</text></g><g><polygon points="-3.25232,-0.431939 -3.2395,-0.459048 -3.22408,-0.48477 -3.20621,-0.508856 -3.18608,-0.531076 -3.16386,-0.551215 -3.13977,-0.569078 -3.11405,-0.584495 -3.08694,-0.597317 -3.04351,-0.492477 -3.14748,-0.388514 " style="fill:#eee;stroke:darkgrey;stroke-width:0.005"/><polyline points="-3.25232,-0.431939 -3.2395,-0.459048 -3.22408,-0.48477 -3.20621,-0.508856 -3.18608,-0.531076 -3.16386,-0.551215 -3.13977,-0.569078 -3.11405,-0.584495 -3.08694,-0.597317 " style="fill:#eee;stroke:black;stroke-width:0.010"/><polygon points="-3.2237,-0.441732 -3.16079,-0.415676 -3.18459,-0.447182 " style="fill:#ccc;stroke-width:0"/><text x="-3.174324963024092" y="-0.46258634352409211" font-size="0.050000000000000003" style="fill:darkgrey">7</text></g><g><polygon points="-3.08694,-0.597317 -3.0333,-0.614306 -2.97778,-0.623635 -2.92162,-0.627955 -2.86532,-0.629554 -2.80899,-0.629958 -2.75266,-0.63 -2.69633,-0.63 -2.64,-0.63 -2.64,-0.536 -3.05097,-0.510472 " style="fill:#eee;stroke:darkgrey;stroke-width:0.005"/><polyline points="-3.08694,-0.597317 -3.0333,-0.614306 -2.97778,-0.623635 -2.92162,-0.627955 -2.86532,-0.629554 -2.80899,-0.629958 -2.75266,-0.63 -2.69633,-0.63 -2.64,-0.63 " style="fill:#eee;stroke:black;stroke-width:0.010"/><polygon points="-3.06127,-0.587602 -3.03968,-0.535495 -3.032,-0.569202 " style="fill:#ccc;stroke-width:0"/><text x="-2.888143089124025" y="-0.55905919670824111" font-size="0.050000000000000003" style="fill:darkgrey">8</text></g><g><polygon points="-2.64,-0.63 -2.5575,-0.63 -2.475,-0.63 -2.3925,-0.63 -2.31,-0.63 -2.2275,-0.63 -2.145,-0.63 -2.0625,-0.63 -1.98,-0.63 -1.98,-0.536 -2.64,-0.536 " style="fill:#eee;stroke:darkgrey;stroke-width:0.005"/><polyline points="-2.64,-0.63 -2.5575,-0.63 -2.475,-0.63 -2.3925,-0.63 -2.31,-0.63 -2.2275,-0.63 -2.145,-0.63 -2.0625,-0.63 -1.98,-0.63 " style="fill:#eee;stroke:black;stroke-width:0.010"/><polygon points="-2.62,-0.6112 -2.62,-0.5548 -2.6,-0.583 " style="fill:#ccc;stroke-width:0"/><text x="-2.3334999999999999" y="-0.55950000000000033" font-size="0.050000000000000003" style="fill:darkgrey">9</text></g><g><polygon points="-1.98,-0.63 -1.8975,-0.63 -1.815,-0.63 -1.7325,-0.63 -1.65,-0.63 -1.5675,-0.63 -1.485,-0.63 -1.4025,-0.63 -1.32,-0.63 -1.32,-0.536 -1.98,-0.536 " style="fill:#eee;stroke:darkgrey;stroke-width:0.005"/><polyline points="-1.98,-0.63 -1.8975,-0.63 -1.815,-0.63 -1.7325,-0.63 -1.65,-0.63 -1.5675,-0.63 -1.485,-0.63 -1.4025,-0.63 -1.32,-0.63 " style="fill:#eee;stroke:black;stroke-width:0.010"/><polygon points="-1.96,-0.6112 -1.96,-0.5548 -1.94,-0.583 " style="fill:#ccc;stroke-width:0"/><text x="-1.6735" y="-0.55950000000000066" font-size="0.050000000000000003" style="fill:darkgrey">10</text></g><g><polygon points="-1.32,-0.63 -1.2375,-0.63 -1.155,-0.63 -1.0725,-0.63 -0.99,-0.63 -0.9075,-0.63 -0.825,-0.63 -0.7425,-0.63 -0.66,-0.63 -0.66,-0.536 -1.32,-0.536 " style="fill:#eee;stroke:darkgrey;stroke-width:0.005"/><polyline points="-1.32,-0.63 -1.2375,-0.63 -1.155,-0.63 -1.0725,-0.63 -0.99,-0.63 -0.9075,-0.63 -0.825,-0.63 -0.7425,-0.63 -0.66,-0.63 " style="fill:#eee;stroke:black;stroke-width:0.010"/><polygon points="-1.3,-0.6112 -1.3,-0.5548 -1.28,-0.583 " style="fill:#ccc;stroke-width:0"/><text x="-1.0134999999999998" y="-0.559500000000001" font-size="0.050000000000000003" style="fill:darkgrey">11</text></g><g><polygon points="-0.66,-0.63 -0.5775,-0.63 -0.495,-0.63 -0.4125,-0.63 -0.33,-0.63 -0.2475,-0.63 -0.165,-0.63 -0.0825,-0.63 4.44089e-16,-0.63 4.85834e-16,-0.536 -0.66,-0.536 " style="fill:#eee;stroke:darkgrey;stroke-width:0.005"/><polyline points="-0.66,-0.63 -0.5775,-0.63 -0.495,-0.63 -0.4125,-0.63 -0.33,-0.63 -0.2475,-0.63 -0.165,-0.63 -0.0825,-0.63 4.44089e-16,-0.63 " style="fill:#eee;stroke:black;stroke-width:0.010"/><polygon points="-0.64,-0.6112 -0.64,-0.5548 -0.62,-0.583 " style="fill:#ccc;stroke-width:0"/><text x="-0.35349999999999965" y="-0.55950000000000133" font-size="0.050000000000000003" style="fill:darkgrey">12</text></g><g><polygon points="4.44089e-16,-0.63 0.0563303,-0.63 0.112661,-0.63 0.168991,-0.629958 0.225319,-0.629554 0.281624,-0.627955 0.337778,-0.623635 0.393297,-0.614306 0.446939,-0.597317 0.410967,-0.510472 4.85834e-16,-0.536 " style="fill:#eee;stroke:darkgrey;stroke-width:0.005"/><polyline points="4.44089e-16,-0.63 0.0563303,-0.63 0.112661,-0.63 0.168991,-0.629958 0.225319,-0.629554 0.281624,-0.627955 0.337778,-0.623635 0.393297,-0.614306 0.446939,-0.597317 " style="fill:#eee;stroke:black;stroke-width:0.010"/><polygon points="0.02,-0.6112 0.02,-0.5548 0.04,-0.583 " style="fill:#ccc;stroke-width:0"/><text x="0.20114308912402534" y="-0.55905919670824256" font-size="0.050000000000000003" style="fill:darkgrey">13</text></g><g><polygon points="0.446939,-0.597317 0.474048,-0.584495 0.49977,-0.569078 0.523856,-0.551215 0.546076,-0.531076 0.566215,-0.508856 0.584078,-0.48477 0.599495,-0.459048 0.612317,-0.431939 0.507477,-0.388514 0.403514,-0.492477 " style="fill:#eee;stroke:darkgrey;stroke-width:0.005"/><polyline points="0.446939,-0.597317 0.474048,-0.584495 0.49977,-0.569078 0.523856,-0.551215 0.546076,-0.531076 0.566215,-0.508856 0.584078,-0.48477 0.599495,-0.459048 0.612317,-0.431939 " style="fill:#eee;stroke:black;stroke-width:0.010"/><polygon points="0.456732,-0.568695 0.430676,-0.505792 0.462182,-0.52959 " style="fill:#ccc;stroke-width:0"/><text x="0.47758634352409285" y="-0.46258634352409389" font-size="0.050000000000000003" style="fill:darkgrey">14</text></g><g><polygon points="0.612317,-0.431939 0.622419,-0.403704 0.629706,-0.374615 0.634106,-0.344952 0.635577,-0.315 0.634106,-0.285048 0.629706,-0.255385 0.622419,-0.226296 0.612317,-0.198061 0.507477,-0.241486 0.507477,-0.388514 " style="fill:#eee;stroke:darkgrey;stroke-width:0.005"/><polyline points="0.612317,-0.431939 0.622419,-0.403704 0.629706,-0.374615 0.634106,-0.344952 0.635577,-0.315 0.634106,-0.285048 0.629706,-0.255385 0.622419,-0.226296 0.612317,-0.198061 " style="fill:#eee;stroke:black;stroke-width:0.010"/><polygon points="0.599003,-0.404777 0.536099,-0.378721 0.575204,-0.373271 " style="fill:#ccc;stroke-width:0"/><text x="0.55046956148643988" y="-0.28663069025000165" font-size="0.050000000000000003" style="fill:darkgrey">15</text></g><g><polygon points="0.612317,-0.198061 0.599495,-0.170952 0.584078,-0.14523 0.566215,-0.121144 0.546076,-0.0989241 0.523856,-0.0787854 0.49977,-0.0609216 0.474048,-0.0455047 0.446939,-0.0326832 0.403514,-0.137523 0.507477,-0.241486 " style="fill:#eee;stroke:darkgrey;stroke-width:0.005"/><polyline points="0.612317,-0.198061 0.599495,-0.170952 0.584078,-0.14523 0.566215,-0.121144 0.546076,-0.0989241 0.523856,-0.0787854 0.49977,-0.0609216 0.474048,-0.0455047 0.446939,-0.0326832 " style="fill:#eee;stroke:black;stroke-width:0.010"/><polygon points="0.583695,-0.188268 0.520792,-0.214324 0.54459,-0.182818 " style="fill:#ccc;stroke-width:0"/><text x="0.47758634352409307" y="-0.11067503697590937" font-size="0.050000000000000003" style="fill:darkgrey">16</text></g><g><polygon points="0.446939,-0.0326832 0.393297,-0.0156938 0.337778,-0.00636481 0.281624,-0.00204461 0.225319,-0.000445667 0.168991,-4.17485e-05 0.112661,-3.66468e-08 0.0563303,-1.09635e-15 8.32667e-16,-1.05471e-15 7.4396e-16,-0.094 0.410967,-0.119528 " style="fill:#eee;stroke:darkgrey;stroke-width:0.005"/><polyline points="0.446939,-0.0326832 0.393297,-0.0156938 0.337778,-0.00636481 0.281624,-0.00204461 0.225319,-0.000445667 0.168991,-4.17485e-05 0.112661,-3.66468e-08 0.0563303,-1.09635e-15 8.32667e-16,-1.05471e-15 " style="fill:#eee;stroke:black;stroke-width:0.010"/><polygon points="0.421267,-0.0423985 0.399684,-0.0945053 0.391998,-0.0607982 " style="fill:#ccc;stroke-width:0"/><text x="0.2011430891240257" y="-0.023940803291760328" font-size="0.050000000000000003" style="fill:darkgrey">17</text></g></g><g><g><polyline points="0,0.015 -0.0253846,0.015 -0.0507692,0.015 -0.0761538,0.015 -0.101538,0.015 -0.126923,0.015 -0.152308,0.015 -0.177692,0.015 -0.203077,0.015 -0.228462,0.015 -0.253846,0.015 -0.279231,0.015 -0.304615,0.015 -0.33,0.015 -0.355385,0.015 -0.380769,0.015 -0.406154,0.015 -0.431538,0.015 -0.456923,0.015 -0.482308,0.015 -0.507692,0.015 -0.533077,0.015 -0.558462,0.015 -0.583846,0.015 -0.609231,0.015 -0.634615,0.015 -0.66,0.015 " stroke-width="0.0050000000000000001" style="stroke:pink;fill:none"/><rect x="-0.0049999999999995768" y="0.0099999999999994746" width="0.01" height="0.01" style="fill:red;stroke-width:0"/><rect x="-0.66500000000000004" y="0.0099999999999999985" width="0.01" height="0.01" style="fill:red;stroke-width:0"/></g><g><polyline points="-0.66,0.015 -0.685385,0.015 -0.710769,0.015 -0.736154,0.015 -0.761538,0.015 -0.786923,0.015 -0.812308,0.015 -0.837692,0.015 -0.863077,0.015 -0.888462,0.015 -0.913846,0.015 -0.939231,0.015 -0.964615,0.015 -0.99,0.015 -1.01538,0.015 -1.04077,0.015 -1.06615,0.015 -1.09154,0.015 -1.11692,0.015 -1.14231,0.015 -1.16769,0.015 -1.19308,0.015 -1.21846,0.015 -1.24385,0.015 -1.26923,0.015 -1.29462,0.015 -1.32,0.015 " stroke-width="0.0050000000000000001" style="stroke:pink;fill:none"/><rect x="-0.66500000000000004" y="0.0099999999999999985" width="0.01" height="0.01" style="fill:red;stroke-width:0"/><rect x="-1.325" y="0.0099999999999999985" width="0.01" height="0.01" style="fill:red;stroke-width:0"/></g><g><polyline points="-1.32,0.015 -1.34538,0.015 -1.37077,0.015 -1.39615,0.015 -1.42154,0.015 -1.44692,0.015 -1.47231,0.015 -1.49769,0.015 -1.52308,0.015 -1.54846,0.015 -1.57385,0.015 -1.59923,0.015 -1.62462,0.015 -1.65,0.015 -1.67538,0.015 -1.70077,0.015 -1.72615,0.015 -1.75154,0.015 -1.77692,0.015 -1.80231,0.015 -1.82769,0.015 -1.85308,0.015 -1.87846,0.015 -1.90385,0.015 -1.92923,0.015 -1.95462,0.015 -1.98,0.015 " stroke-width="0.0050000000000000001" style="stroke:pink;fill:none"/><rect x="-1.325" y="0.0099999999999999985" width="0.01" height="0.01" style="fill:red;stroke-width:0"/><rect x="-1.9849999999999999" y="0.0099999999999999985" width="0.01" height="0.01" style="fill:red;stroke-width:0"/></g><g><polyline points="-1.98,0.015 -2.00538,0.015 -2.03077,0.015 -2.05615,0.015 -2.08154,0.015 -2.10692,0.015 -2.13231,0.015 -2.15769,0.015 -2.18308,0.015 -2.20846,0.015 -2.23385,0.015 -2.25923,0.015 -2.28462,0.015 -2.31,0.015 -2.33538,0.015 -2.36077,0.015 -2.38615,0.015 -2.41154,0.015 -2.43692,0.015 -2.46231,0.015 -2.48769,0.015 -2.51308,0.015 -2.53846,0.015 -2.56385,0.015 -2.58923,0.015 -2.61462,0.015 -2.64,0.015 " stroke-width="0.0050000000000000001" style="stroke:pink;fill:none"/><rect x="-1.9849999999999999" y="0.0099999999999999985" width="0.01" height="0.01" style="fill:red;stroke-width:0"/><rect x="-2.645" y="0.0099999999999999985" width="0.01" height="0.01" style="fill:red;stroke-width:0"/></g><g><polyline points="-2.64,0.015 -2.66625,0.015 -2.6925,0.015 -2.71875,0.015 -2.745,0.015 " stroke-width="0.0050000000000000001" style="stroke:pink;fill:none"/><rect x="-2.645" y="0.0099999999999999985" width="0.01" height="0.01" style="fill:red;stroke-width:0"/><rect x="-2.75" y="0.0099999999999999985" width="0.01" height="0.01" style="fill:red;stroke-width:0"/></g><g><polyline points="-2.745,0.015 -2.77159,0.014998 -2.7982,0.0149785 -2.82483,0.0149062 -2.8515,0.0147224 -2.87823,0.0143393 -2.90502,0.0136353 -2.9319,0.0124499 -2.95887,0.0105791 -2.9859,0.0077732 -3.01293,0.00374117 -3.03988,-0.00183544 -3.06654,-0.00927084 -3.09268,-0.018825 " stroke-width="0.0050000000000000001" style="stroke:pink;fill:none"/><rect x="-2.75" y="0.0099999999999999985" width="0.01" height="0.01" style="fill:red;stroke-width:0"/><rect x="-3.0976796944940084" y="-0.023825017724777367" width="0.01" height="0.01" style="fill:red;stroke-width:0"/></g><g><polyline points="-3.09268,-0.018825 -3.11803,-0.0306443 -3.14225,-0.0446277 -3.16516,-0.0606688 -3.18658,-0.0786455 -3.20635,-0.098421 -3.22433,-0.119845 -3.24037,-0.142754 -3.25436,-0.166974 -3.26617,-0.19232 " stroke-width="0.0050000000000000001" style="stroke:pink;fill:none"/><rect x="-3.0976796944940084" y="-0.023825017724777367" width="0.01" height="0.01" style="fill:red;stroke-width:0"/><rect x="-3.2711749822752227" y="-0.19732030550599172" width="0.01" height="0.01" style="fill:red;stroke-width:0"/></g><g><polyline points="-3.26617,-0.19232 -3.27574,-0.2186 -3.28298,-0.245614 -3.28783,-0.273156 -3.29027,-0.301017 -3.29027,-0.328983 -3.28783,-0.356844 -3.28298,-0.384386 -3.27574,-0.4114 -3.26617,-0.43768 " stroke-width="0.0050000000000000001" style="stroke:pink;fill:none"/><rect x="-3.2711749822752227" y="-0.19732030550599172" width="0.01" height="0.01" style="fill:red;stroke-width:0"/><rect x="-3.2711749822752227" y="-0.44267969449400824" width="0.01" height="0.01" style="fill:red;stroke-width:0"/></g><g><polyline points="-3.26617,-0.43768 -3.25436,-0.463026 -3.24037,-0.487246 -3.22433,-0.510155 -3.20635,-0.531579 -3.18658,-0.551355 -3.16516,-0.569331 -3.14225,-0.585372 -3.11803,-0.599356 -3.09268,-0.611175 " stroke-width="0.0050000000000000001" style="stroke:pink;fill:none"/><rect x="-3.2711749822752227" y="-0.44267969449400824" width="0.01" height="0.01" style="fill:red;stroke-width:0"/><rect x="-3.0976796944940084" y="-0.61617498227522272" width="0.01" height="0.01" style="fill:red;stroke-width:0"/></g><g><polyline points="-3.09268,-0.611175 -3.06654,-0.620729 -3.03988,-0.628165 -3.01293,-0.633741 -2.9859,-0.637773 -2.95887,-0.640579 -2.9319,-0.64245 -2.90502,-0.643635 -2.87823,-0.644339 -2.8515,-0.644722 -2.82483,-0.644906 -2.7982,-0.644978 -2.77159,-0.644998 -2.745,-0.645 " stroke-width="0.0050000000000000001" style="stroke:pink;fill:none"/><rect x="-3.0976796944940084" y="-0.61617498227522272" width="0.01" height="0.01" style="fill:red;stroke-width:0"/><rect x="-2.75" y="-0.65000000000000024" width="0.01" height="0.01" style="fill:red;stroke-width:0"/></g><g><polyline points="-2.745,-0.645 -2.71875,-0.645 -2.6925,-0.645 -2.66625,-0.645 -2.64,-0.645 " stroke-width="0.0050000000000000001" style="stroke:pink;fill:none"/><rect x="-2.75" y="-0.65000000000000024" width="0.01" height="0.01" style="fill:red;stroke-width:0"/><rect x="-2.645" y="-0.65000000000000024" width="0.01" height="0.01" style="fill:red;stroke-width:0"/></g><g><polyline points="-2.64,-0.645 -2.61462,-0.645 -2.58923,-0.645 -2.56385,-0.645 -2.53846,-0.645 -2.51308,-0.645 -2.48769,-0.645 -2.46231,-0.645 -2.43692,-0.645 -2.41154,-0.645 -2.38615,-0.645 -2.36077,-0.645 -2.33538,-0.645 -2.31,-0.645 -2.28462,-0.645 -2.25923,-0.645 -2.23385,-0.645 -2.20846,-0.645 -2.18308,-0.645 -2.15769,-0.645 -2.13231,-0.645 -2.10692,-0.645 -2.08154,-0.645 -2.05615,-0.645 -2.03077,-0.645 -2.00538,-0.645 -1.98,-0.645 " stroke-width="0.0050000000000000001" style="stroke:pink;fill:none"/><rect x="-2.645" y="-0.65000000000000024" width="0.01" height="0.01" style="fill:red;stroke-width:0"/><rect x="-1.9849999999999999" y="-0.65000000000000058" width="0.01" height="0.01" style="fill:red;stroke-width:0"/></g><g><polyline points="-1.98,-0.645 -1.95462,-0.645 -1.92923,-0.645 -1.90385,-0.645 -1.87846,-0.645 -1.85308,-0.645 -1.82769,-0.645 -1.80231,-0.645 -1.77692,-0.645 -1.75154,-0.645 -1.72615,-0.645 -1.70077,-0.645 -1.67538,-0.645 -1.65,-0.645 -1.62462,-0.645 -1.59923,-0.645 -1.57385,-0.645 -1.54846,-0.645 -1.52308,-0.645 -1.49769,-0.645 -1.47231,-0.645 -1.44692,-0.645 -1.42154,-0.645 -1.39615,-0.645 -1.37077,-0.645 -1.34538,-0.645 -1.32,-0.645 " stroke-width="0.0050000000000000001" style="stroke:pink;fill:none"/><rect x="-1.9849999999999999" y="-0.65000000000000058" width="0.01" height="0.01" style="fill:red;stroke-width:0"/><rect x="-1.3249999999999997" y="-0.65000000000000091" width="0.01" height="0.01" style="fill:red;stroke-width:0"/></g><g><polyline points="-1.32,-0.645 -1.29462,-0.645 -1.26923,-0.645 -1.24385,-0.645 -1.21846,-0.645 -1.19308,-0.645 -1.16769,-0.645 -1.14231,-0.645 -1.11692,-0.645 -1.09154,-0.645 -1.06615,-0.645 -1.04077,-0.645 -1.01538,-0.645 -0.99,-0.645 -0.964615,-0.645 -0.939231,-0.645 -0.913846,-0.645 -0.888462,-0.645 -0.863077,-0.645 -0.837692,-0.645 -0.812308,-0.645 -0.786923,-0.645 -0.761538,-0.645 -0.736154,-0.645 -0.710769,-0.645 -0.685385,-0.645 -0.66,-0.645 " stroke-width="0.0050000000000000001" style="stroke:pink;fill:none"/><rect x="-1.3249999999999997" y="-0.65000000000000091" width="0.01" height="0.01" style="fill:red;stroke-width:0"/><rect x="-0.6649999999999997" y="-0.65000000000000124" width="0.01" height="0.01" style="fill:red;stroke-width:0"/></g><g><polyline points="-0.66,-0.645 -0.634615,-0.645 -0.609231,-0.645 -0.583846,-0.645 -0.558462,-0.645 -0.533077,-0.645 -0.507692,-0.645 -0.482308,-0.645 -0.456923,-0.645 -0.431538,-0.645 -0.406154,-0.645 -0.380769,-0.645 -0.355385,-0.645 -0.33,-0.645 -0.304615,-0.645 -0.279231,-0.645 -0.253846,-0.645 -0.228462,-0.645 -0.203077,-0.645 -0.177692,-0.645 -0.152308,-0.645 -0.126923,-0.645 -0.101538,-0.645 -0.0761538,-0.645 -0.0507692,-0.645 -0.0253846,-0.645 4.37428e-16,-0.645 " stroke-width="0.0050000000000000001" style="stroke:pink;fill:none"/><rect x="-0.6649999999999997" y="-0.65000000000000124" width="0.01" height="0.01" style="fill:red;stroke-width:0"/><rect x="-0.004999999999999563" y="-0.65000000000000158" width="0.01" height="0.01" style="fill:red;stroke-width:0"/></g><g><polyline points="4.37428e-16,-0.645 0.02625,-0.645 0.0525,-0.645 0.07875,-0.645 0.105,-0.645 " stroke-width="0.0050000000000000001" style="stroke:pink;fill:none"/><rect x="-0.004999999999999563" y="-0.65000000000000158" width="0.01" height="0.01" style="fill:red;stroke-width:0"/><rect x="0.10000000000000046" y="-0.65000000000000158" width="0.01" height="0.01" style="fill:red;stroke-width:0"/></g><g><polyline points="0.105,-0.645 0.131592,-0.644998 0.158197,-0.644978 0.184829,-0.644906 0.2115,-0.644722 0.238227,-0.644339 0.265025,-0.643635 0.291905,-0.64245 0.318868,-0.640579 0.345896,-0.637773 0.372934,-0.633741 0.399876,-0.628165 0.426543,-0.620729 0.45268,-0.611175 " stroke-width="0.0050000000000000001" style="stroke:pink;fill:none"/><rect x="0.10000000000000046" y="-0.65000000000000158" width="0.01" height="0.01" style="fill:red;stroke-width:0"/><rect x="0.44767969449400885" y="-0.61617498227522438" width="0.01" height="0.01" style="fill:red;stroke-width:0"/></g><g><polyline points="0.45268,-0.611175 0.478026,-0.599356 0.502246,-0.585372 0.525155,-0.569331 0.546579,-0.551355 0.566355,-0.531579 0.584331,-0.510155 0.600372,-0.487246 0.614356,-0.463026 0.626175,-0.43768 " stroke-width="0.0050000000000000001" style="stroke:pink;fill:none"/><rect x="0.44767969449400885" y="-0.61617498227522438" width="0.01" height="0.01" style="fill:red;stroke-width:0"/><rect x="0.62117498227522339" y="-0.44267969449401001" width="0.01" height="0.01" style="fill:red;stroke-width:0"/></g><g><polyline points="0.626175,-0.43768 0.63574,-0.4114 0.642979,-0.384386 0.647835,-0.356844 0.650272,-0.328983 0.650272,-0.301017 0.647835,-0.273156 0.642979,-0.245614 0.63574,-0.2186 0.626175,-0.19232 " stroke-width="0.0050000000000000001" style="stroke:pink;fill:none"/><rect x="0.62117498227522339" y="-0.44267969449401001" width="0.01" height="0.01" style="fill:red;stroke-width:0"/><rect x="0.62117498227522361" y="-0.19732030550599344" width="0.01" height="0.01" style="fill:red;stroke-width:0"/></g><g><polyline points="0.626175,-0.19232 0.614356,-0.166974 0.600372,-0.142754 0.584331,-0.119845 0.566355,-0.098421 0.546579,-0.0786455 0.525155,-0.0606688 0.502246,-0.0446277 0.478026,-0.0306443 0.45268,-0.018825 " stroke-width="0.0050000000000000001" style="stroke:pink;fill:none"/><rect x="0.62117498227522361" y="-0.19732030550599344" width="0.01" height="0.01" style="fill:red;stroke-width:0"/><rect x="0.44767969449400929" y="-0.023825017724778876" width="0.01" height="0.01" style="fill:red;stroke-width:0"/></g><g><polyline points="0.45268,-0.018825 0.426543,-0.00927084 0.399876,-0.00183544 0.372934,0.00374117 0.345896,0.0077732 0.318868,0.0105791 0.291905,0.0124499 0.265025,0.0136353 0.238227,0.0143393 0.2115,0.0147224 0.184829,0.0149062 0.158197,0.0149785 0.131592,0.014998 0.105,0.015 " stroke-width="0.0050000000000000001" style="stroke:pink;fill:none"/><rect x="0.44767969449400929" y="-0.023825017724778876" width="0.01" height="0.01" style="fill:red;stroke-width:0"/><rect x="0.10000000000000094" y="0.0099999999999988258" width="0.01" height="0.01" style="fill:red;stroke-width:0"/></g><g><polyline points="8.46823e-16,0.015 0.02625,0.015 0.0525,0.015 0.07875,0.015 0.105,0.015 " stroke-width="0.0050000000000000001" style="stroke:pink;fill:none"/><rect x="-0.0049999999999995768" y="0.0099999999999994746" width="0.01" height="0.01" style="fill:red;stroke-width:0"/><rect x="0.10000000000000094" y="0.0099999999999988258" width="0.01" height="0.01" style="fill:red;stroke-width:0"/></g></g><polyline points="0,0.015 -0.0250664,0.015 -0.0501328,0.015 -0.0751991,0.015 -0.100266,0.015 -0.125332,0.015 -0.150398,0.015 -0.175465,0.015 -0.200531,0.015 -0.225597,0.015 -0.250664,0.015 -0.27573,0.015 -0.300797,0.015 -0.325863,0.015 -0.350929,0.015 -0.375996,0.015 -0.401062,0.015 -0.426128,0.015 -0.451195,0.015 -0.476261,0.015 -0.501328,0.015 -0.526394,0.015 -0.55146,0.015 -0.576527,0.015 -0.601593,0.015 -0.626659,0.015 -0.651726,0.015 -0.676792,0.015 -0.701859,0.015 -0.726925,0.015 -0.751991,0.015 -0.777058,0.015 -0.802124,0.015 -0.82719,0.015 -0.852257,0.015 -0.877323,0.015 -0.90239,0.015 -0.927456,0.015 -0.952522,0.015 -0.977589,0.015 -1.00266,0.015 -1.02772,0.015 -1.05279,0.015 -1.07785,0.015 -1.10292,0.015 -1.12799,0.015 -1.15305,0.015 -1.17812,0.015 -1.20319,0.015 -1.22825,0.015 -1.25332,0.015 -1.27839,0.015 -1.30345,0.015 -1.32852,0.015 -1.35358,0.015 -1.37865,0.015 -1.40372,0.015 -1.42878,0.015 -1.45385,0.015 -1.47892,0.015 -1.50398,0.015 -1.52905,0.015 -1.55412,0.015 -1.57918,0.015 -1.60425,0.015 -1.62931,0.015 -1.65438,0.015 -1.67945,0.015 -1.70451,0.015 -1.72958,0.015 -1.75465,0.015 -1.77971,0.015 -1.80478,0.015 -1.82985,0.015 -1.85491,0.015 -1.87998,0.015 -1.90504,0.015 -1.93011,0.015 -1.95518,0.015 -1.98024,0.015 -2.00531,0.015 -2.03038,0.015 -2.05544,0.015 -2.08051,0.015 -2.10558,0.015 -2.13064,0.015 -2.15571,0.015 -2.18077,0.015 -2.20584,0.015 -2.23091,0.015 -2.25597,0.015 -2.28104,0.015 -2.30611,0.015 -2.33117,0.015 -2.35624,0.015 -2.38131,0.015 -2.40637,0.015 -2.43144,0.015 -2.4565,0.015 -2.48157,0.015 -2.50664,0.015 -2.5317,0.015 -2.55677,0.015 -2.58184,0.015 -2.6069,0.015 -2.63197,0.015 -2.65704,0.015 -2.6821,0.015 -2.70717,0.015 -2.73224,0.015 -2.7573,0.0149998 -2.78238,0.0149937 -2.80747,0.0149618 -2.83259,0.0148676 -2.85774,0.0146546 -2.88295,0.0142423 -2.90823,0.0135228 -2.93358,0.0123561 -2.959,0.0105679 -2.98448,0.00794774 -3.00997,0.00425248 -3.03539,-0.000784102 -3.06061,-0.00742909 -3.0854,-0.0159112 -3.10951,-0.0263729 -3.13269,-0.0387749 -3.15478,-0.0530346 -3.17562,-0.0690559 -3.19509,-0.0867313 -3.21303,-0.105942 -3.22934,-0.126558 -3.24391,-0.148442 -3.25664,-0.171446 -3.26744,-0.195415 -3.27624,-0.220188 -3.28298,-0.2456 -3.28761,-0.271477 -3.29011,-0.297648 -3.29045,-0.323935 -3.28864,-0.350162 -3.28469,-0.376153 -3.27862,-0.401732 -3.27048,-0.426728 -3.26031,-0.450973 -3.24819,-0.474303 -3.23421,-0.496562 -3.21844,-0.5176 -3.20101,-0.537275 -3.18202,-0.555456 -3.1616,-0.57202 -3.1399,-0.586855 -3.11705,-0.599861 -3.09322,-0.610953 -3.0686,-0.620064 -3.0435,-0.627274 -3.01813,-0.632798 -2.99265,-0.636893 -2.96716,-0.63983 -2.94171,-0.64186 -2.91634,-0.643205 -2.89104,-0.644051 -2.86581,-0.644549 -2.84064,-0.644816 -2.81551,-0.644941 -2.79041,-0.644988 -2.76533,-0.644999 -2.74027,-0.645 -2.7152,-0.645 -2.69013,-0.645 -2.66507,-0.645 -2.64,-0.645 -2.61493,-0.645 -2.58987,-0.645 -2.5648,-0.645 -2.53973,-0.645 -2.51467,-0.645 -2.4896,-0.645 -2.46454,-0.645 -2.43947,-0.645 -2.4144,-0.645 -2.38934,-0.645 -2.36427,-0.645 -2.3392,-0.645 -2.31414,-0.645 -2.28907,-0.645 -2.264,-0.645 -2.23894,-0.645 -2.21387,-0.645 -2.18881,-0.645 -2.16374,-0.645 -2.13867,-0.645 -2.11361,-0.645 -2.08854,-0.645 -2.06347,-0.645 -2.03841,-0.645 -2.01334,-0.645 -1.98827,-0.645 -1.96321,-0.645 -1.93814,-0.645 -1.91308,-0.645 -1.88801,-0.645 -1.86294,-0.645 -1.83788,-0.645 -1.81281,-0.645 -1.78774,-0.645 -1.76268,-0.645 -1.73761,-0.645 -1.71254,-0.645 -1.68748,-0.645 -1.66241,-0.645 -1.63734,-0.645 -1.61228,-0.645 -1.58721,-0.645 -1.56215,-0.645 -1.53708,-0.645 -1.51201,-0.645 -1.48695,-0.645 -1.46188,-0.645 -1.43681,-0.645 -1.41175,-0.645 -1.38668,-0.645 -1.36161,-0.645 -1.33655,-0.645 -1.31148,-0.645 -1.28642,-0.645 -1.26135,-0.645 -1.23628,-0.645 -1.21122,-0.645 -1.18615,-0.645 -1.16108,-0.645 -1.13602,-0.645 -1.11095,-0.645 -1.08588,-0.645 -1.06082,-0.645 -1.03575,-0.645 -1.01069,-0.645 -0.985619,-0.645 -0.960553,-0.645 -0.935486,-0.645 -0.91042,-0.645 -0.885354,-0.645 -0.860287,-0.645 -0.835221,-0.645 -0.810154,-0.645 -0.785088,-0.645 -0.760022,-0.645 -0.734955,-0.645 -0.709889,-0.645 -0.684823,-0.645 -0.659756,-0.645 -0.63469,-0.645 -0.609623,-0.645 -0.584557,-0.645 -0.559491,-0.645 -0.534424,-0.645 -0.509358,-0.645 -0.484292,-0.645 -0.459225,-0.645 -0.434159,-0.645 -0.409092,-0.645 -0.384026,-0.645 -0.35896,-0.645 -0.333893,-0.645 -0.308827,-0.645 -0.283761,-0.645 -0.258694,-0.645 -0.233628,-0.645 -0.208561,-0.645 -0.183495,-0.645 -0.158429,-0.645 -0.133362,-0.645 -0.108296,-0.645 -0.0832295,-0.645 -0.0581632,-0.645 -0.0330968,-0.645 -0.0080304,-0.645 0.017036,-0.645 0.0421024,-0.645 0.0671687,-0.645 0.0922351,-0.645 0.117302,-0.645 0.142377,-0.644994 0.167467,-0.644962 0.192585,-0.644868 0.217743,-0.644655 0.242953,-0.644242 0.268228,-0.643523 0.293577,-0.642356 0.318999,-0.640568 0.34448,-0.637948 0.369974,-0.634252 0.395395,-0.629216 0.420606,-0.622571 0.445396,-0.614089 0.469515,-0.603627 0.492695,-0.591225 0.514781,-0.576965 0.535625,-0.560944 0.555085,-0.543269 0.573032,-0.524058 0.589345,-0.503442 0.603913,-0.481558 0.616639,-0.458554 0.627438,-0.434585 0.636236,-0.409812 0.642975,-0.3844 0.647609,-0.358523 0.650108,-0.332352 0.650453,-0.306065 0.648643,-0.279838 0.644691,-0.253847 0.638622,-0.228268 0.630478,-0.203272 0.620312,-0.179027 0.608195,-0.155697 0.594207,-0.133438 0.578441,-0.1124 0.561006,-0.0927246 0.542016,-0.0745439 0.521601,-0.0579804 0.499897,-0.0431453 0.477051,-0.0301385 0.453215,-0.0190474 0.428602,-0.0099364 0.403503,-0.00272568 0.378132,0.00279791 0.352649,0.00689347 0.327158,0.00983007 0.301714,0.0118602 0.27634,0.0132053 0.251042,0.0140513 0.225813,0.0145488 0.20064,0.0148156 0.175511,0.0149406 0.150412,0.0149877 0.125334,0.0149992 0.100266,0.015 0.0751991,0.015 0.0501328,0.015 0.0250664,0.015 0,0.015 " stroke="blue" style="stroke-opacity:0.5;stroke-width:0.010;fill:none;marker-end:url(#secArrow-blue)"/><g><polyline points="-0.0491,0.006 -0.0401,0.006 -0.0401,0.024 -0.0446,0.024 " stroke="lightgrey" fill="none" style="stroke-width:0.004"/></g><g><polyline points="-0.6109,0.024 -0.6199,0.024 -0.6199,0.006 -0.6154,0.006 " stroke="lightgrey" fill="none" style="stroke-width:0.004"/></g><g><polyline points="-0.7091,0.006 -0.7001,0.006 -0.7001,0.024 -0.7046,0.024 " stroke="lightgrey" fill="none" style="stroke-width:0.004"/></g><g><polyline points="-1.2709,0.024 -1.2799,0.024 -1.2799,0.006 -1.2754,0.006 " stroke="lightgrey" fill="none" style="stroke-width:0.004"/></g><g><polyline points="-1.3691,0.006 -1.3601,0.006 -1.3601,0.024 -1.3646,0.024 " stroke="lightgrey" fill="none" style="stroke-width:0.004"/></g><g><polyline points="-1.9309,0.024 -1.9399,0.024 -1.9399,0.006 -1.9354,0.006 " stroke="lightgrey" fill="none" style="stroke-width:0.004"/></g><g><polyline points="-2.0291,0.006 -2.0201,0.006 -2.0201,0.024 -2.0246,0.024 " stroke="lightgrey" fill="none" style="stroke-width:0.004"/></g><g><polyline points="-2.5909,0.024 -2.5999,0.024 -2.5999,0.006 -2.5954,0.006 " stroke="lightgrey" fill="none" style="stroke-width:0.004"/></g><g><polyline points="-2.6891,0.006 -2.6801,0.006 -2.6801,0.024 -2.6846,0.024 " stroke="lightgrey" fill="none" style="stroke-width:0.004"/></g><g><polyline points="-3.04677,0.00583839 -3.05545,0.00343068 -3.05063,-0.0139132 -3.04629,-0.0127094 " stroke="lightgrey" fill="none" style="stroke-width:0.004"/></g><g><polyline points="-3.13367,-0.0497195 -3.12588,-0.045217 -3.13488,-0.0296315 -3.13878,-0.0318827 " stroke="lightgrey" fill="none" style="stroke-width:0.004"/></g><g><polyline points="-3.25087,-0.142325 -3.25537,-0.150118 -3.23978,-0.159123 -3.23753,-0.155227 " stroke="lightgrey" fill="none" style="stroke-width:0.004"/></g><g><polyline points="-3.27331,-0.24315 -3.27099,-0.234456 -3.28838,-0.229803 -3.28954,-0.23415 " stroke="lightgrey" fill="none" style="stroke-width:0.004"/></g><g><polyline points="-3.2907,-0.391503 -3.28838,-0.400197 -3.27099,-0.395544 -3.27215,-0.391197 " stroke="lightgrey" fill="none" style="stroke-width:0.004"/></g><g><polyline points="-3.23528,-0.47867 -3.23978,-0.470877 -3.25537,-0.479882 -3.25312,-0.483779 " stroke="lightgrey" fill="none" style="stroke-width:0.004"/></g><g><polyline points="-3.14267,-0.595866 -3.13488,-0.600369 -3.12588,-0.584783 -3.12977,-0.582532 " stroke="lightgrey" fill="none" style="stroke-width:0.004"/></g><g><polyline points="-3.04196,-0.618494 -3.05063,-0.616087 -3.05545,-0.633431 -3.05111,-0.634635 " stroke="lightgrey" fill="none" style="stroke-width:0.004"/></g><g><polyline points="-2.6891,-0.654 -2.6801,-0.654 -2.6801,-0.636 -2.6846,-0.636 " stroke="lightgrey" fill="none" style="stroke-width:0.004"/></g><g><polyline points="-2.5909,-0.636 -2.5999,-0.636 -2.5999,-0.654 -2.5954,-0.654 " stroke="lightgrey" fill="none" style="stroke-width:0.004"/></g><g><polyline points="-2.0291,-0.654 -2.0201,-0.654 -2.0201,-0.636 -2.0246,-0.636 " stroke="lightgrey" fill="none" style="stroke-width:0.004"/></g><g><polyline points="-1.9309,-0.636 -1.9399,-0.636 -1.9399,-0.654 -1.9354,-0.654 " stroke="lightgrey" fill="none" style="stroke-width:0.004"/></g><g><polyline points="-1.3691,-0.654 -1.3601,-0.654 -1.3601,-0.636 -1.3646,-0.636 " stroke="lightgrey" fill="none" style="stroke-width:0.004"/></g><g><polyline points="-1.2709,-0.636 -1.2799,-0.636 -1.2799,-0.654 -1.2754,-0.654 " stroke="lightgrey" fill="none" style="stroke-width:0.004"/></g><g><polyline points="-0.7091,-0.654 -0.7001,-0.654 -0.7001,-0.636 -0.7046,-0.636 " stroke="lightgrey" fill="none" style="stroke-width:0.004"/></g><g><polyline points="-0.6109,-0.636 -0.6199,-0.636 -0.6199,-0.654 -0.6154,-0.654 " stroke="lightgrey" fill="none" style="stroke-width:0.004"/></g><g><polyline points="-0.0491,-0.654 -0.0401,-0.654 -0.0401,-0.636 -0.0446,-0.636 " stroke="lightgrey" fill="none" style="stroke-width:0.004"/></g><g><polyline points="0.0491,-0.636 0.0401,-0.636 0.0401,-0.654 0.0446,-0.654 " stroke="lightgrey" fill="none" style="stroke-width:0.004"/></g><g><polyline points="0.406773,-0.635838 0.415445,-0.633431 0.41063,-0.616087 0.406294,-0.617291 " stroke="lightgrey" fill="none" style="stroke-width:0.004"/></g><g><polyline points="0.49367,-0.58028 0.485877,-0.584783 0.494882,-0.600369 0.498779,-0.598117 " stroke="lightgrey" fill="none" style="stroke-width:0.004"/></g><g><polyline points="0.610866,-0.487675 0.615369,-0.479882 0.599783,-0.470877 0.597532,-0.474773 " stroke="lightgrey" fill="none" style="stroke-width:0.004"/></g><g><polyline points="0.633314,-0.38685 0.630987,-0.395544 0.648375,-0.400197 0.649539,-0.39585 " stroke="lightgrey" fill="none" style="stroke-width:0.004"/></g><g><polyline points="0.650702,-0.238497 0.648375,-0.229803 0.630987,-0.234456 0.63215,-0.238803 " stroke="lightgrey" fill="none" style="stroke-width:0.004"/></g><g><polyline points="0.59528,-0.15133 0.599783,-0.159123 0.615369,-0.150118 0.613117,-0.146221 " stroke="lightgrey" fill="none" style="stroke-width:0.004"/></g><g><polyline points="0.502675,-0.034134 0.494882,-0.0296315 0.485877,-0.045217 0.489773,-0.0474682 " stroke="lightgrey" fill="none" style="stroke-width:0.004"/></g><g><polyline points="0.401958,-0.0115055 0.41063,-0.0139132 0.415445,0.00343068 0.411109,0.00463454 " stroke="lightgrey" fill="none" style="stroke-width:0.004"/></g><g><polyline points="0.0491,0.024 0.0401,0.024 0.0401,0.006 0.0446,0.006 " stroke="lightgrey" fill="none" style="stroke-width:0.004"/></g></g></svg>